<svg xmlns="http://www.w3.org/2000/svg" viewBox="93.4 86.8 329.6 329.6"><rect x="93.4" y="86.8" width="329.6" height="329.6" rx="59.3" fill="#0a0a0a"/><path fill="#ffffff" d="M 190.4 131.6 C 192.2 131.8 190.4 128.6 200.0 133.2 C 209.6 137.7 231.5 152.9 248.0 158.6 C 264.5 164.3 286.5 166.0 299.0 167.3 C 311.5 168.6 317.7 165.9 323.0 166.1 C 328.3 166.4 329.4 167.1 330.8 169.0 C 332.1 171.0 333.6 173.2 331.0 178.0 C 328.5 182.8 318.7 193.0 315.6 198.0 C 312.5 203.0 311.9 204.3 312.7 208.0 C 313.4 211.7 314.9 216.5 320.1 220.4 C 325.3 224.3 338.9 228.1 343.8 231.2 C 348.7 234.4 348.6 235.3 349.8 239.1 C 350.9 242.9 351.2 248.7 350.8 254.0 C 350.3 259.3 346.6 263.0 347.1 270.8 C 347.5 278.7 353.0 294.3 353.5 301.0 C 353.9 307.7 351.6 308.2 349.8 310.8 C 348.1 313.4 345.8 315.5 343.0 316.5 C 340.2 317.6 339.0 318.2 333.0 317.1 C 327.0 316.0 314.4 310.6 307.1 309.7 C 299.8 308.9 293.1 310.7 289.0 312.1 C 285.0 313.5 283.7 314.5 282.6 318.1 C 281.5 321.8 286.5 330.9 282.2 334.0 C 278.0 337.1 264.2 337.3 257.0 336.9 C 249.8 336.4 244.0 330.2 238.8 331.1 C 233.6 332.0 230.8 336.5 225.9 342.2 C 221.0 347.9 213.2 361.2 209.2 365.3 C 205.1 369.4 201.3 374.6 201.7 366.9 C 202.1 359.2 210.0 329.8 211.6 319.0 C 213.3 308.2 212.9 305.8 211.7 302.4 C 210.4 299.0 210.7 298.2 204.0 298.7 C 197.2 299.2 177.5 304.9 171.1 305.5 C 164.7 306.2 166.9 304.2 165.6 302.4 C 164.3 300.7 162.5 300.9 163.2 295.0 C 163.9 289.1 169.1 280.5 169.9 267.0 C 170.6 253.5 167.3 224.8 167.6 214.0 C 168.0 203.2 168.4 208.1 172.0 202.1 C 175.6 196.1 186.9 188.4 189.3 178.0 C 191.7 167.6 186.2 147.7 186.3 140.0 C 186.4 132.3 189.0 133.3 189.6 131.9 C 190.3 130.5 188.7 131.4 190.4 131.6 Z"/><ellipse cx="191" cy="237.9" rx="10.8" ry="16.4" fill="#0a0a0a"/><ellipse cx="222.4" cy="262.7" rx="10.8" ry="16.4" fill="#0a0a0a"/></svg>